<?xml version="1.0" encoding="UTF-8" standalone="no"?>
<!-- Generator: Adobe Illustrator 23.0.1, SVG Export Plug-In . SVG Version: 6.00 Build 0)  -->

<svg
   version="1.1"
   id="Layer_1"
   x="0px"
   y="0px"
   viewBox="0 0 119.01857 103.6"
   xml:space="preserve"
   sodipodi:docname="brave-bat.svg"
   width="119.01858"
   height="103.6"
   inkscape:version="1.1 (c4e8f9ed74, 2021-05-24)"
   xmlns:inkscape="http://www.inkscape.org/namespaces/inkscape"
   xmlns:sodipodi="http://sodipodi.sourceforge.net/DTD/sodipodi-0.dtd"
   xmlns="http://www.w3.org/2000/svg"
   xmlns:svg="http://www.w3.org/2000/svg"
   xmlns:rdf="http://www.w3.org/1999/02/22-rdf-syntax-ns#"
   xmlns:cc="http://creativecommons.org/ns#"
   xmlns:dc="http://purl.org/dc/elements/1.1/"><defs
   id="defs53" /><sodipodi:namedview
   id="namedview51"
   pagecolor="#ffffff"
   bordercolor="#666666"
   borderopacity="1.0"
   inkscape:pageshadow="2"
   inkscape:pageopacity="0.0"
   inkscape:pagecheckerboard="0"
   showgrid="false"
   inkscape:zoom="2.6384075"
   inkscape:cx="70.876088"
   inkscape:cy="108.96725"
   inkscape:window-width="1081"
   inkscape:window-height="1046"
   inkscape:window-x="2879"
   inkscape:window-y="32"
   inkscape:window-maximized="1"
   inkscape:current-layer="Layer_1" />
<style
   type="text/css"
   id="style2">
	.st0{fill:#434351;}
	.st1{fill:url(#Head_1_);}
	.st2{fill:#FFFFFF;}
	.st3{fill:url(#path-3_2_);}
	.st4{fill:none;stroke:#8E8E8E;stroke-width:2;stroke-miterlimit:10;}
	.st5{fill:#9E1F63;}
	.st6{fill:#FF4724;}
	.st7{fill:#662D91;}
</style>
<title
   id="title4">logo</title>
<desc
   id="desc6">Created with Sketch.</desc>


<g
   id="g48"
   transform="translate(-527.70759,-8.185714)">
	<g
   transform="translate(2.421429,9.685714)"
   id="g46">
		<path
   class="st5"
   d="m 584.8,-1.5 v 40.4 l 24.2,41.9 35.1,20.4 c 0.3,-0.6 0.3,-1.3 -0.2,-2.2 L 615.2,49.3 586.5,-0.2 c -0.5,-0.9 -1.1,-1.3 -1.7,-1.3"
   id="path38" />
		<path
   class="st6"
   d="M 525.5,101.2 560.6,80.8 584.8,38.9 V -1.5 c -0.6,0 -1.3,0.4 -1.8,1.3 l -28.7,49.7 -28.7,49.7 c -0.4,0.7 -0.4,1.5 -0.1,2"
   id="path40" />
		<path
   class="st7"
   d="M 644,101.2 609,80.8 h -48.4 l -35.1,20.4 c 0.3,0.6 1,0.9 2,0.9 h 114.6 c 0.9,0 1.6,-0.3 1.9,-0.9"
   id="path42" />
		<polygon
   class="st2"
   points="584.8,38.9 560.6,80.8 609,80.8 "
   id="polygon44" />
	</g>
</g>
<metadata
   id="metadata558"><rdf:RDF><cc:Work
       rdf:about=""><dc:title>logo</dc:title></cc:Work></rdf:RDF></metadata></svg>
